<svg xmlns="http://www.w3.org/2000/svg" viewBox="0 0 180 180" xml:space="preserve"><path fill="#333" d="M89.999 25.377C54.31 25.377 25.378 54.311 25.378 90c0 35.689 28.932 64.622 64.621 64.622 35.69 0 64.623-28.933 64.623-64.622s-28.933-64.623-64.623-64.623z"/><path fill="#FFF" d="M88.169 142.759h-10.17a.384.384 0 1 0 0 .768h10.17a.384.384 0 1 0 0-.768zM91.704 139.989h-1.643a.384.384 0 0 0 0 .768h1.643a.385.385 0 1 0 0-.768zM93.661 146.374h-1.643a.383.383 0 1 0 0 .768h1.643a.384.384 0 1 0 0-.768zM88.169 139.989h-6.193a.383.383 0 0 0 0 .768h6.193a.383.383 0 1 0 0-.768zM97.399 137.172h-7.477a.384.384 0 0 0 0 .768h7.477a.383.383 0 1 0 0-.768zM112.431 58.901h-11.118a.383.383 0 1 0 0 .768h11.118a.386.386 0 0 0 .385-.385.385.385 0 0 0-.385-.383zM116.295 56.13H114.5a.384.384 0 0 0 0 .768h1.795a.384.384 0 0 0 0-.768zM117.536 60.884h-1.795a.385.385 0 0 0 0 .768h1.795a.384.384 0 1 0 0-.768zM112.431 56.13h-6.771a.384.384 0 0 0 0 .768h6.771a.386.386 0 0 0 .385-.384.386.386 0 0 0-.385-.384zM76.965 58.507H65.847a.384.384 0 1 0 0 .769h11.118a.384.384 0 0 0 0-.769zM63.777 61.277h-1.796a.385.385 0 0 0 0 .769h1.796a.384.384 0 0 0 0-.769zM62.536 56.524H60.74a.384.384 0 0 0 0 .768h1.796a.384.384 0 0 0 0-.768zM72.616 61.277h-6.77a.385.385 0 0 0 0 .769h6.77a.384.384 0 1 0 0-.769zM103.79 142.59h-3.883a.384.384 0 1 0 0 .768h3.883a.384.384 0 1 0 0-.768z"/><path fill="#FFF" d="M101.933 140.479a.385.385 0 0 0-.383.385v4.39a.384.384 0 1 0 .768 0v-4.39a.386.386 0 0 0-.385-.385z"/><g><path fill="#B3B3B3" d="M124.303 45.705h-.003l.003-.124a4.318 4.318 0 0 0-8.45-1.252 2.518 2.518 0 0 0-3.418 3.186c-.027-.001-.056-.004-.083-.004a1.613 1.613 0 0 0 0 3.226h11.951a2.515 2.515 0 0 0 0-5.032z"/><path fill="#FFF" d="M131.681 50.441h-.006c.002-.035.006-.082.006-.123a4.318 4.318 0 0 0-8.451-1.252 2.52 2.52 0 0 0-3.59 2.278c0 .32.062.626.172.908a1.613 1.613 0 1 0-.082 3.222h11.951a2.515 2.515 0 0 0 2.514-2.517 2.516 2.516 0 0 0-2.514-2.516z"/></g><g><path fill="#B3B3B3" d="M70.005 47.027a.775.775 0 0 0-.068.004 2.1 2.1 0 0 0-2.85-2.655 3.598 3.598 0 0 0-7.041 1.043c0 .034.002.073.004.103h-.004a2.096 2.096 0 0 0-2.096 2.098c0 1.158.938 2.097 2.096 2.097h9.959a1.345 1.345 0 0 0 0-2.69z"/><path fill="#FFF" d="M63.857 50.974c-.023 0-.046.003-.069.004a2.098 2.098 0 0 0-2.849-2.655 3.597 3.597 0 0 0-7.042 1.042c0 .035.003.074.004.104h-.004a2.097 2.097 0 1 0 0 4.194h9.959a1.343 1.343 0 1 0 .001-2.689z"/></g><g><path fill="#333" d="M116.576 114.952H63.392a2.81 2.81 0 0 0-2.802 2.803v1a2.81 2.81 0 0 0 2.802 2.802h53.184a2.811 2.811 0 0 0 2.802-2.802v-1a2.81 2.81 0 0 0-2.802-2.803zM114.233 127.794H55.146a2.81 2.81 0 0 0-2.803 2.801v1.001a2.81 2.81 0 0 0 2.803 2.801h59.088a2.81 2.81 0 0 0 2.801-2.801v-1.001a2.81 2.81 0 0 0-2.802-2.801zM126.645 127.794h-5.857a2.81 2.81 0 0 0-2.802 2.801v1.001a2.81 2.81 0 0 0 2.802 2.801h5.857a2.81 2.81 0 0 0 2.802-2.801v-1.001a2.81 2.81 0 0 0-2.802-2.801z"/><path fill="#333" d="M112.505 121.376H64.401a2.934 2.934 0 0 1 2.926 2.926v.752a2.934 2.934 0 0 1-2.926 2.926h48.104a2.934 2.934 0 0 1-2.926-2.926v-.752a2.935 2.935 0 0 1 2.926-2.926z"/></g><g><path fill="#333" d="M140.577 99.221h-31.531c-.748 0-1.359.611-1.359 1.358v1.13c0 .748.611 1.359 1.359 1.359h31.531c.749 0 1.359-.611 1.359-1.359v-1.13a1.361 1.361 0 0 0-1.359-1.358zM139.213 106.703h-34.972c-.747 0-1.359.612-1.359 1.359v1.13c0 .747.612 1.358 1.359 1.358h34.972c.748 0 1.359-.611 1.359-1.358v-1.13c0-.747-.611-1.359-1.359-1.359zM146.444 106.703h-3.959c-.748 0-1.359.612-1.359 1.359v1.13c0 .747.611 1.358 1.359 1.358h3.959c.748 0 1.359-.611 1.359-1.358v-1.13a1.362 1.362 0 0 0-1.359-1.359z"/><path fill="#333" d="M137.933 102.964h-28.025a1.71 1.71 0 0 1 1.705 1.705v.438a1.71 1.71 0 0 1-1.705 1.704h28.025a1.71 1.71 0 0 1-1.705-1.704v-.438a1.71 1.71 0 0 1 1.705-1.705z"/></g><g><path fill="#333" d="M73.737 99.922H42.205c-.747 0-1.358.611-1.358 1.358v1.13c0 .748.611 1.359 1.358 1.359h31.532c.747 0 1.359-.611 1.359-1.359v-1.13a1.363 1.363 0 0 0-1.359-1.358zM72.372 107.404H37.4c-.747 0-1.358.611-1.358 1.359v1.13c0 .747.611 1.358 1.358 1.358h34.972c.747 0 1.359-.611 1.359-1.358v-1.13c0-.748-.612-1.359-1.359-1.359zM79.605 107.404h-3.96c-.748 0-1.359.611-1.359 1.359v1.13c0 .747.611 1.358 1.359 1.358h3.96c.746 0 1.357-.611 1.357-1.358v-1.13c0-.748-.611-1.359-1.357-1.359z"/><path fill="#333" d="M71.093 103.666H43.066a1.71 1.71 0 0 1 1.705 1.704v.438c0 .938-.768 1.706-1.705 1.706h28.026a1.711 1.711 0 0 1-1.705-1.706v-.438a1.71 1.71 0 0 1 1.706-1.704z"/></g><g><path fill-rule="evenodd" clip-rule="evenodd" fill="#CCCBC9" d="M74.026 114.952h31.93v14.596h-31.93z"/><path fill-rule="evenodd" clip-rule="evenodd" fill="#A3A3A3" d="M74.026 114.952h31.93v7.299h-31.93z"/><path fill-rule="evenodd" clip-rule="evenodd" fill="#FFF" d="M130.532 66.28H49.524a4.158 4.158 0 0 0-4.145 4.146v44.082a4.158 4.158 0 0 0 4.145 4.146h81.008a4.157 4.157 0 0 0 4.145-4.146V70.425a4.156 4.156 0 0 0-4.145-4.145z"/><path fill-rule="evenodd" clip-rule="evenodd" fill="#ADEBF6" d="M48.131 68.698h83.796v42.554H48.131z"/><path fill-rule="evenodd" clip-rule="evenodd" fill="#FFF" d="M123.833 126.529H56.149c-.83 0-1.51.679-1.51 1.51 0 .83.68 1.509 1.51 1.509h67.684c.83 0 1.51-.679 1.51-1.509 0-.831-.68-1.51-1.51-1.51z"/><g><path fill="#FFF" d="M90.028 73.395s-4.801 6.334-13.244 5.622c0 0-2.655 22.511 13.244 27.537 15.9-5.026 13.246-27.537 13.246-27.537-8.445.712-13.246-5.622-13.246-5.622z"/><path fill="#FF916E" d="M90.028 77.975s-4.76 4.149-10.498 4.149c0 0-.762 17.174 10.498 21.099 11.26-3.925 10.5-21.099 10.5-21.099-5.739.001-10.5-4.149-10.5-4.149z"/><path fill="#FFF" d="M93.63 87.626h-7.203a.632.632 0 0 0-.624.639v7.047c0 .353.28.638.624.638h7.203a.63.63 0 0 0 .625-.638v-7.047a.632.632 0 0 0-.625-.639z"/><path fill="#FFF" d="M90.028 83.317c-1.501 0-2.723 1.248-2.723 2.782v3.323h5.445v-3.323c.001-1.534-1.22-2.782-2.722-2.782zm1.526 4.883h-3.051v-2.101c0-.859.686-1.559 1.525-1.559.842 0 1.525.699 1.525 1.559V88.2z"/><path fill="#FF916E" d="M91.53 90.668c0-.848-.673-1.533-1.502-1.533-.828 0-1.5.685-1.5 1.533 0 .568.302 1.062.75 1.328l-.536 2.609h2.573l-.537-2.609c.45-.266.752-.76.752-1.328z"/></g></g><g><path fill="#757575" d="M95.835 89.779h34.094v2.362H95.835z"/><path fill="#757575" d="M100.251 91.868h2.646v4.804h-2.646zM107.52 91.868h2.647v4.804h-2.647zM134.423 85.402a6.051 6.051 0 0 0 0 12.101 6.05 6.05 0 0 0 6.049-6.051 6.047 6.047 0 0 0-6.049-6.05zm0 8.943a2.895 2.895 0 0 1 0-5.789 2.892 2.892 0 0 1 2.893 2.895 2.894 2.894 0 0 1-2.893 2.894z"/></g><g><path fill="#757575" d="M49.981 89.779h34.094v2.362H49.981z"/><path fill="#757575" d="M77.012 91.868h2.648v4.804h-2.648zM69.743 91.868h2.646v4.804h-2.646zM45.487 85.402a6.047 6.047 0 0 0-6.05 6.05 6.051 6.051 0 1 0 6.05-6.05zm0 8.943a2.893 2.893 0 0 1-2.893-2.894 2.895 2.895 0 1 1 2.893 2.894z"/></g><g><path fill="#1FCC68" d="M141.452 77.623a6.37 6.37 0 1 0 0 12.738 6.37 6.37 0 0 0 0-12.738z"/><path fill="#FFF" d="m137.698 83.768-1.06 1.031s1.942 1.229 3.529 3.172c0 0 2.242-4.674 6.1-7.191 0 0-3.064 1.394-6.428 4.621l-2.141-1.633z"/></g><g><path fill="#FF916E" d="M38.499 75.801a6.988 6.988 0 1 0 0 13.977 6.988 6.988 0 0 0 0-13.977z"/><path fill="#FFF" d="M38.499 78.09a4.7 4.7 0 1 0 0 9.4 4.7 4.7 0 0 0 0-9.4z"/><g><path fill="#FF916E" d="m33.905 85.695 7.503-7.494 1.682 1.685-7.502 7.494z"/></g></g></svg>