<svg xmlns="http://www.w3.org/2000/svg" viewBox="0 0 48 48"><defs><style>.cls-1{fill:#fc6}.cls-2{fill:#ffde76}.cls-3{fill:#7c7d7d}.cls-8{fill:#374f68}</style></defs><g id="Security_password" data-name="Security password"><path class="cls-1" d="M39 40v5a2 2 0 0 1-2 2H11a2 2 0 0 1-2-2v-5zM39 23v5H9v-5a2 2 0 0 1 2-2h26a2 2 0 0 1 2 2z"/><path class="cls-2" d="M39 42v2H14a2 2 0 0 1-2-2zM39 23v5H12v-5a2 2 0 0 1 2-2h23a2 2 0 0 1 2 2z"/><path class="cls-3" d="M36 13v8h-4c0-8.09.61-10.69-2.34-13.66A8 8 0 0 0 16 13v8h-4v-8a12 12 0 0 1 24 0z"/><path class="cls-3" d="M36 13v8h-4c0-8.09.61-10.69-2.34-13.66A8 8 0 0 0 16 13v8h-4v-8a12 12 0 0 1 24 0z"/><path d="M14 13v8h2v-8a8 8 0 0 1 7-7.93A8 8 0 0 0 14 13z" style="fill:#747575"/><path d="M23 1.05A12 12 0 0 1 34 13v8h2v-8A12 12 0 0 0 23 1.05z" style="fill:#919191"/><rect x="2" y="28" width="44" height="12" rx="2" style="fill:#dad7e5"/><path d="M46 30v8H15A10 10 0 0 1 5 28h39a2 2 0 0 1 2 2z" style="fill:#edebf2"/><path class="cls-8" d="M9.23 32.13c-.3.18-.23.21-.23-.13a1 1 0 0 0-2 0c0 .35.06.3-.23.13a1 1 0 0 0-1 1.74c.3.17.29.09 0 .26a1 1 0 0 0 1 1.74c.3-.18.23-.21.23.13a1 1 0 0 0 2 0c0-.35-.06-.3.23-.13a1 1 0 0 0 1-1.74c-.3-.17-.29-.09 0-.26a1 1 0 0 0-1-1.74zM17.23 32.13c-.3.18-.23.21-.23-.13a1 1 0 0 0-2 0c0 .35.06.3-.23.13a1 1 0 0 0-1 1.74c.3.17.29.09 0 .26a1 1 0 0 0 1 1.74c.3-.18.23-.21.23.13a1 1 0 0 0 2 0c0-.35-.06-.3.23-.13a1 1 0 0 0 1-1.74c-.3-.17-.29-.09 0-.26a1 1 0 0 0-1-1.74zM33.23 32.13c-.3.18-.23.21-.23-.13a1 1 0 0 0-2 0c0 .35.06.3-.23.13a1 1 0 0 0-1 1.74c.3.17.29.09 0 .26a1 1 0 0 0 1 1.74c.3-.18.23-.21.23.13a1 1 0 0 0 2 0c0-.35-.06-.3.23-.13a1 1 0 0 0 1-1.74c-.3-.17-.29-.09 0-.26a1 1 0 0 0-1-1.74zM25.23 32.13c-.3.18-.23.21-.23-.13a1 1 0 0 0-2 0c0 .35.06.3-.23.13a1 1 0 0 0-1 1.74c.3.17.29.09 0 .26a1 1 0 0 0 1 1.74c.3-.18.23-.21.23.13a1 1 0 0 0 2 0c0-.35-.06-.3.23-.13a1 1 0 0 0 1-1.74c-.3-.17-.29-.09 0-.26a1 1 0 0 0-1-1.74zM42.23 34.13c-.3-.17-.29-.09 0-.26a1 1 0 0 0-1-1.74c-.3.18-.23.21-.23-.13a1 1 0 0 0-2 0c0 .35.06.3-.23.13a1 1 0 0 0-1 1.74c.3.17.29.09 0 .26a1 1 0 0 0 .5 1.87c.77 0 .73-.63.73 0a1 1 0 0 0 2 0v-.27c1.58.91 2.28-.99 1.23-1.6z"/></g></svg>